<svg id="onilne_shopping" xmlns="http://www.w3.org/2000/svg" width="53" height="55" viewBox="0 0 53 55">
  <path id="Path" d="M0,55H53V0H0Z" fill="none"/>
  <path id="Shape" d="M6.208,34.591l-5.936-6.3a1,1,0,0,1,0-1.372l6.161-6.537a1,1,0,0,0,0-1.372L3.214,15.594a1,1,0,0,1,.449-1.646L24.175,8.012a1,1,0,0,1,1.247,1.21L19.827,30.986a1,1,0,0,1-1.7.437l-3.014-3.2a1,1,0,0,0-1.455,0l-6,6.363a1,1,0,0,1-1.456,0Zm21.43-20.168V10.908h4.968v3.515ZM26.467,4.394,30.607,0l2.342,2.485-4.14,4.394Zm-7.11,1.242V.364h3.312V5.636Z" transform="translate(16.051 10)" fill="#fff"/>
</svg>