<svg id="Illustration" xmlns="http://www.w3.org/2000/svg" width="200" height="149" viewBox="0 0 200 149">
                            <path id="Path" d="M40.922,51,58,24.236,19.752,0,0,30.954,31.636,51Z" transform="translate(10 66)" fill="#f0f0f0"/>
                            <path id="Shape" d="M0,8V0H42V8Z" transform="translate(32 117)" fill="#3f3d56"/>
                            <circle id="Oval" cx="2.5" cy="2.5" r="2.5" transform="translate(67 118)" fill="#00a3bf"/>
                            <circle id="Oval-2" data-name="Oval" cx="2.5" cy="2.5" r="2.5" transform="translate(59 118)" fill="#00a3bf"/>
                            <circle id="Oval-3" data-name="Oval" cx="2.5" cy="2.5" r="2.5" transform="translate(51 118)" fill="#00a3bf"/>
                            <circle id="Oval-4" data-name="Oval" cx="2.5" cy="2.5" r="2.5" transform="translate(44 118)" fill="#00a3bf"/>
                            <circle id="Oval-5" data-name="Oval" cx="2.5" cy="2.5" r="2.5" transform="translate(36 118)" fill="#00a3bf"/>
                            <path id="Path-2" data-name="Path" d="M40.581,30.984V10.145H51V0H0V51H43.6V46.014a7.078,7.078,0,0,1,7.078-7.078H51V30.984Z" transform="translate(84)" fill="#f0f0f0"/>
                            <rect id="Rectangle" width="34" height="7" transform="translate(147 131)" fill="#00a3bf"/>
                            <rect id="Rectangle-2" data-name="Rectangle" width="50" height="7" transform="translate(138 96)" fill="#f0f0f0"/>
                            <rect id="Rectangle-3" data-name="Rectangle" width="212" height="1" transform="translate(0 168)" fill="#3f3d56"/>
                            <path id="Shape-2" data-name="Shape" d="M7.348,130A7.343,7.343,0,0,1,0,122.676V7.323A7.343,7.343,0,0,1,7.348,0h62.3A7.345,7.345,0,0,1,77,7.323V122.676A7.345,7.345,0,0,1,69.652,130Z" transform="translate(127 39)" fill="#3f3d56"/>
                            <path id="Shape-3" data-name="Shape" d="M0,1.5A1.5,1.5,0,1,1,1.5,3,1.5,1.5,0,0,1,0,1.5Z" transform="translate(157 41)" fill="#3f3d56"/>
                            <rect id="Rectangle-4" data-name="Rectangle" width="12" height="1" transform="translate(162 42)" fill="#3f3d56"/>
                            <path id="Path-3" data-name="Path" d="M22,0V22A22,22,0,0,1,0,0Z" transform="translate(177 46)" fill="#00a3bf"/>
                            <path id="Shape-4" data-name="Shape" d="M0,115V0H67V115Z" transform="translate(132 46)" fill="#3f3d56"/>
                            <circle id="Oval-6" data-name="Oval" cx="7.5" cy="7.5" r="7.5" transform="translate(175 52)" opacity="0.1"/>
                            <circle id="Oval-7" data-name="Oval" cx="7.5" cy="7.5" r="7.5" transform="translate(174 53)" fill="#00a3bf"/>
                            <rect id="Rectangle-5" data-name="Rectangle" width="10" height="4" transform="translate(135 51)" fill="#3f3d56"/>
                            <rect id="Rectangle-6" data-name="Rectangle" width="10" height="4" transform="translate(141 87)" fill="#3f3d56"/>
                            <path id="Shape-5" data-name="Shape" d="M0,7V0H50V7Z" transform="translate(141 94)" fill="#3f3d56"/>
                            <rect id="Rectangle-7" data-name="Rectangle" width="50" height="7" transform="translate(138 117)" fill="#f0f0f0"/>
                            <rect id="Rectangle-8" data-name="Rectangle" width="10" height="4" transform="translate(141 108)" fill="#3f3d56"/>
                            <path id="Shape-6" data-name="Shape" d="M0,7V0H50V7Z" transform="translate(141 115)" fill="#3f3d56"/>
                            <path id="Shape-7" data-name="Shape" d="M0,8V0H34V8Z" transform="translate(149 129)" fill="#3f3d56"/>
                            <path id="Path-4" data-name="Path" d="M5,2.5A2.5,2.5,0,0,1,.573,4.092l0,0A2.5,2.5,0,1,1,4.928,1.907v0h0A2.557,2.557,0,0,1,5,2.5Z" transform="translate(184 96)" fill="#00a3bf"/>
                            <path id="Path-5" data-name="Path" d="M5,1.5A2.53,2.53,0,0,1,3.162,3.852a2.979,2.979,0,0,1-3.082-.76l0,0A2.314,2.314,0,0,1,0,2.5,2.53,2.53,0,0,1,1.838.148a2.979,2.979,0,0,1,3.082.76v0h0A2.314,2.314,0,0,1,5,1.5Z" transform="translate(184 97)" opacity="0.1"/>
                            <circle id="Oval-8" data-name="Oval" cx="2.5" cy="2.5" r="2.5" transform="translate(185 98)" fill="#00a3bf"/>
                            <path id="Path-6" data-name="Path" d="M5,2.5A2.5,2.5,0,0,1,.573,4.092l0,0A2.5,2.5,0,1,1,4.928,1.907v0h0A2.557,2.557,0,0,1,5,2.5Z" transform="translate(184 117)" fill="#00a3bf"/>
                            <path id="Path-7" data-name="Path" d="M5,1.5A2.53,2.53,0,0,1,3.162,3.852a2.979,2.979,0,0,1-3.082-.76l0,0A2.314,2.314,0,0,1,0,2.5,2.53,2.53,0,0,1,1.838.148a2.979,2.979,0,0,1,3.082.76v0h0A2.314,2.314,0,0,1,5,1.5Z" transform="translate(184 118)" opacity="0.1"/>
                            <circle id="Oval-9" data-name="Oval" cx="2.5" cy="2.5" r="2.5" transform="translate(185 119)" fill="#00a3bf"/>
                            <rect id="Rectangle-9" data-name="Rectangle" width="14" height="14" transform="translate(128 13)" fill="#f0f0f0"/>
                            <path id="Shape-8" data-name="Shape" d="M0,3.5A3.5,3.5,0,1,1,3.5,7,3.5,3.5,0,0,1,0,3.5Z" transform="translate(179 17)" fill="#3f3d56"/>
                            <path id="Shape-9" data-name="Shape" d="M0,7V0H7V7Z" transform="translate(104 62)" fill="#3f3d56"/>
                            <path id="Shape-10" data-name="Shape" d="M0,7V0H7V7Z" transform="translate(212 115)" fill="#3f3d56"/>
                            <path id="Path-8" data-name="Path" d="M0,9.562l1.243.65,4.229,2.214L12.3,16l3.979-7.172a5.676,5.676,0,0,0,.468-4.44,5.864,5.864,0,0,0-2.9-3.459,8.144,8.144,0,0,0-9.3,1.226l0,0a7.773,7.773,0,0,0-1.5,1.914Z" transform="translate(79 65)" fill="#2f2e41"/>
                            <path id="Path-9" data-name="Path" d="M6,.8,5.173,9.6l-3.1.4L0,0,6,.8Z" transform="translate(91 148)" fill="#ffb8b8"/>
                            <path id="Path-10" data-name="Path" d="M.98,1.083S4.97-1.04,5.81.659c0,0-.63,5.1,1.89,5.733s3.57,5.1,0,5.521-5.88-.849-7.14-.849S.56,6.6.56,6.6Z" transform="translate(92 156)" fill="#2f2e41"/>
                            <path id="Path-11" data-name="Path" d="M0,.8.828,9.6l3.1.4L6,0,0,.8Z" transform="translate(73 148)" fill="#ffb8b8"/>
                            <path id="Path-12" data-name="Path" d="M9.02,1.083S5.03-1.04,4.19.659c0,0,.63,5.1-1.89,5.733s-3.57,5.1,0,5.521,5.88-.849,7.14-.849,0-4.459,0-4.459Z" transform="translate(68 156)" fill="#2f2e41"/>
                            <circle id="Oval-10" data-name="Oval" cx="5.5" cy="5.5" r="5.5" transform="translate(84 65)" fill="#ffb8b8"/>
                            <path id="Path-13" data-name="Path" d="M0,10.2l4.283,6.6,5.1-.4,8.363.6s.789-1.548,1.434-3.054a11.673,11.673,0,0,0,.81-2.346c.2-1.4-2.652-2.8-2.652-2.8s-.112-.02-.3-.064c-.249-.058-.632-.154-1.053-.294C15.037,8.126,13.9,7.59,13.666,6.8c-.408-1.4,2.652-3.4,2.652-3.4L12.646,0S9.385,4.442,5.424,5.454a6.419,6.419,0,0,1-.7.14L4.691,5.6A5.359,5.359,0,0,0,0,10.2Z" transform="translate(72 71)" fill="#ffb8b8"/>
                            <path id="Path-14" data-name="Path" d="M7.147,0,4.882,1.824S3.029,10.54,3.647,12.972a11.34,11.34,0,0,1-.206,5.067c0,.405-1.853,15.607-1.853,15.607s-3.706,8.108.206,7.3,2.471-8.918,2.471-8.918L9,17.837V5.878Z" transform="translate(68 80)" fill="#ffb8b8"/>
                            <path id="Path-15" data-name="Path" d="M.818,0,2.455,1.212,3.273,18.18,9.41,32.724s4.5,7.07,1.637,7.272-4.7-7.272-4.7-7.272L.818,18.786,0,5.252Z" transform="translate(90 81)" fill="#ffb8b8"/>
                            <path id="Path-16" data-name="Path" d="M10.132,0A15.738,15.738,0,0,0,20.875,1.831s1.859,3.661.826,5.7,1.24,6.916,1.653,7.526S28.519,28.275,30.172,41.9s6.2,22.986,2.273,24.206-11.983,2.644-12.809,1.424S17.57,36,17.57,36L15.3,47.6s3.1,19.731.826,20.138S-.4,66.923.009,64.482,4.554,49.226,4.554,49.226,4.347,23.6,8.479,18.714c0,0,1.653-2.644-.62-6.1s-2.066-8.95-2.066-8.95S7.446,3.661,10.132,0Z" transform="translate(70 82)" fill="#2f2e41"/>
                            <path id="Path-17" data-name="Path" d="M0,.148,3.232,8,4,7.576.657,0,0,.148Z" transform="translate(77 76)" fill="#2f2e41"/>
                            <path id="Path-18" data-name="Path" d="M0,0,2.42,6,3,5.942,2.8,4.92.989.317A10.07,10.07,0,0,1,0,0Z" transform="translate(89 79)" fill="#2f2e41"/>
                            <path id="Path-19" data-name="Path" d="M.159,10.572a3.524,3.524,0,0,0,6.43.617C3.9,7.719,6.206,5.54,10.581,3.891A3.409,3.409,0,0,0,10.2.065,8.235,8.235,0,0,0,3.53,2.23l0,0L.419,7.912a3.391,3.391,0,0,0-.26,2.66Z" transform="translate(80 65)" fill="#2f2e41"/>
                            <ellipse id="Oval-11" data-name="Oval" cx="0.5" cy="1" rx="0.5" ry="1" transform="translate(86 70)" fill="#ffb8b8"/>
                            <path id="Path-20" data-name="Path" d="M0,4.168,5.916,7,7,4.471A6.14,6.14,0,0,0,5.859,1.949L1.787,0Z" transform="translate(88 65)" fill="#2f2e41"/>
                            <circle id="Oval-12" data-name="Oval" cx="2.5" cy="2.5" r="2.5" transform="translate(101 119)" fill="#00a3bf"/>
                            <circle id="Oval-13" data-name="Oval" cx="2" cy="2" r="2" transform="translate(14 137)" fill="#ff6584"/>
                            <rect id="Rectangle-10" data-name="Rectangle" width="1" height="20" transform="translate(24 148)" fill="#3f3d56"/>
                            <circle id="Oval-14" data-name="Oval" cx="3" cy="3" r="3" transform="translate(21 145)" fill="#3f3d56"/>
                            <path id="Path-21" data-name="Path" d="M9,8S8.581-.957,0,.084" transform="translate(15 153)" fill="#3f3d56"/>
                          </svg>